<?xml version="1.0" encoding="utf-8"?>
<!-- Generator: Adobe Illustrator 25.2.3, SVG Export Plug-In . SVG Version: 6.00 Build 0)  -->
<svg version="1.1" xmlns="http://www.w3.org/2000/svg" xmlns:xlink="http://www.w3.org/1999/xlink" x="0px" y="0px"
	 viewBox="0 0 1024 1024" style="enable-background:new 0 0 1024 1024;" xml:space="preserve">
<style type="text/css">
	.st0{display:none;}
	.st1{display:inline;fill:#EFEFEF;}
	.st2{display:inline;opacity:0.2;}
	.st3{display:inline;opacity:0.15;}
	.st4{clip-path:url(#SVGID_2_);}
	.st5{fill:none;stroke:#000000;stroke-width:0.25;stroke-miterlimit:10;}
	.st6{display:inline;}
	.st7{opacity:0.4;}
	.st8{clip-path:url(#SVGID_4_);fill:none;stroke:#000000;stroke-width:0.25;stroke-miterlimit:10;}
	.st9{clip-path:url(#SVGID_4_);}
	.st10{clip-path:url(#SVGID_6_);fill:#66CCFF;}
	.st11{clip-path:url(#SVGID_6_);}
	.st12{fill:#C6392E;}
	.st13{fill:none;stroke:#000000;stroke-width:5;stroke-linecap:round;stroke-linejoin:round;stroke-miterlimit:10;}
	.st14{fill:#2A3B80;}
	.st15{fill:none;stroke:#000000;stroke-width:3;stroke-linecap:round;stroke-linejoin:round;stroke-miterlimit:10;}
	.st16{clip-path:url(#SVGID_8_);fill:#FFFFFF;}
	.st17{clip-path:url(#SVGID_8_);fill:#E0E0E0;}
	.st18{clip-path:url(#SVGID_10_);fill:#008D43;}
	.st19{clip-path:url(#SVGID_10_);}
	.st20{clip-path:url(#SVGID_12_);fill:#FFFFFF;}
	.st21{clip-path:url(#SVGID_12_);fill:#E0E0E0;}
	.st22{clip-path:url(#SVGID_14_);fill:#F4D500;}
	.st23{clip-path:url(#SVGID_14_);}
	.st24{clip-path:url(#SVGID_16_);fill:#FFFFFF;}
	.st25{clip-path:url(#SVGID_16_);fill:#E0E0E0;}
	.st26{clip-path:url(#SVGID_18_);fill:#3D487D;}
	.st27{clip-path:url(#SVGID_18_);}
	.st28{clip-path:url(#SVGID_20_);fill:#FFFFFF;}
	.st29{clip-path:url(#SVGID_20_);fill:#E0E0E0;}
	.st30{clip-path:url(#SVGID_22_);fill:#D0D0D0;}
	.st31{clip-path:url(#SVGID_22_);}
	.st32{clip-path:url(#SVGID_24_);fill:#FFFFFF;}
	.st33{clip-path:url(#SVGID_24_);fill:#E0E0E0;}
	.st34{clip-path:url(#SVGID_26_);fill:#F18B2B;}
	.st35{clip-path:url(#SVGID_26_);}
	.st36{clip-path:url(#SVGID_28_);fill:#FFFFFF;}
	.st37{clip-path:url(#SVGID_28_);fill:#E0E0E0;}
	.st38{clip-path:url(#SVGID_30_);fill:#8D2CBF;}
	.st39{clip-path:url(#SVGID_30_);}
	.st40{clip-path:url(#SVGID_32_);fill:#FFFFFF;}
	.st41{clip-path:url(#SVGID_32_);fill:#E0E0E0;}
	.st42{clip-path:url(#SVGID_34_);fill:#7D4BC7;}
	.st43{clip-path:url(#SVGID_34_);}
	.st44{clip-path:url(#SVGID_36_);fill:#FFFFFF;}
	.st45{clip-path:url(#SVGID_36_);fill:#E0E0E0;}
	.st46{clip-path:url(#SVGID_38_);fill:#5B2CBF;}
	.st47{clip-path:url(#SVGID_38_);}
	.st48{clip-path:url(#SVGID_40_);fill:#FFFFFF;}
	.st49{clip-path:url(#SVGID_40_);fill:#E0E0E0;}
	.st50{clip-path:url(#SVGID_42_);fill:#B59FDB;}
	.st51{clip-path:url(#SVGID_42_);}
	.st52{clip-path:url(#SVGID_44_);fill:#FFFFFF;}
	.st53{clip-path:url(#SVGID_44_);fill:#E0E0E0;}
	.st54{clip-path:url(#SVGID_46_);fill:#E2AFFF;}
	.st55{clip-path:url(#SVGID_46_);fill:#C6392E;}
	
		.st56{clip-path:url(#SVGID_46_);fill:none;stroke:#000000;stroke-width:9;stroke-linecap:round;stroke-linejoin:round;stroke-miterlimit:10;}
	.st57{clip-path:url(#SVGID_46_);fill:#2A3B80;}
	
		.st58{clip-path:url(#SVGID_46_);fill:none;stroke:#000000;stroke-width:7;stroke-linecap:round;stroke-linejoin:round;stroke-miterlimit:10;}
	
		.st59{clip-path:url(#SVGID_46_);fill:none;stroke:#000000;stroke-width:4;stroke-linecap:round;stroke-linejoin:round;stroke-miterlimit:10;}
	
		.st60{clip-path:url(#SVGID_46_);fill:none;stroke:#000000;stroke-width:8;stroke-linecap:round;stroke-linejoin:round;stroke-miterlimit:10;}
	.st61{clip-path:url(#SVGID_46_);}
	.st62{clip-path:url(#SVGID_48_);fill:#FFFFFF;}
	.st63{clip-path:url(#SVGID_48_);fill:#E0E0E0;}
	.st64{clip-path:url(#SVGID_46_);fill:none;}
	.st65{clip-path:url(#SVGID_50_);fill:#B5AADB;}
	.st66{clip-path:url(#SVGID_50_);fill:#C6392E;}
	
		.st67{clip-path:url(#SVGID_50_);fill:none;stroke:#000000;stroke-width:9;stroke-linecap:round;stroke-linejoin:round;stroke-miterlimit:10;}
	.st68{clip-path:url(#SVGID_50_);fill:#2A3B80;}
	
		.st69{clip-path:url(#SVGID_50_);fill:none;stroke:#000000;stroke-width:7;stroke-linecap:round;stroke-linejoin:round;stroke-miterlimit:10;}
	
		.st70{clip-path:url(#SVGID_50_);fill:none;stroke:#000000;stroke-width:4;stroke-linecap:round;stroke-linejoin:round;stroke-miterlimit:10;}
	
		.st71{clip-path:url(#SVGID_50_);fill:none;stroke:#000000;stroke-width:8;stroke-linecap:round;stroke-linejoin:round;stroke-miterlimit:10;}
	.st72{clip-path:url(#SVGID_50_);}
	.st73{clip-path:url(#SVGID_52_);fill:#FFFFFF;}
	.st74{clip-path:url(#SVGID_52_);fill:#E0E0E0;}
	.st75{clip-path:url(#SVGID_50_);fill:none;}
	.st76{clip-path:url(#SVGID_54_);fill:#B59FDB;}
	.st77{clip-path:url(#SVGID_54_);fill:#D5211F;}
	
		.st78{clip-path:url(#SVGID_54_);fill:none;stroke:#000000;stroke-width:9;stroke-linecap:round;stroke-linejoin:round;stroke-miterlimit:10;}
	.st79{clip-path:url(#SVGID_54_);fill:#2A3B80;}
	
		.st80{clip-path:url(#SVGID_54_);fill:none;stroke:#000000;stroke-width:7;stroke-linecap:round;stroke-linejoin:round;stroke-miterlimit:10;}
	
		.st81{clip-path:url(#SVGID_54_);fill:none;stroke:#000000;stroke-width:4;stroke-linecap:round;stroke-linejoin:round;stroke-miterlimit:10;}
	
		.st82{clip-path:url(#SVGID_54_);fill:none;stroke:#000000;stroke-width:8;stroke-linecap:round;stroke-linejoin:round;stroke-miterlimit:10;}
	.st83{clip-path:url(#SVGID_54_);}
	.st84{clip-path:url(#SVGID_56_);fill:#FFFFFF;}
	.st85{clip-path:url(#SVGID_56_);fill:#E0E0E0;}
	.st86{clip-path:url(#SVGID_54_);fill:none;}
	.st87{clip-path:url(#SVGID_58_);fill:#9497FF;}
	.st88{clip-path:url(#SVGID_58_);fill:#C6392E;}
	
		.st89{clip-path:url(#SVGID_58_);fill:none;stroke:#000000;stroke-width:9;stroke-linecap:round;stroke-linejoin:round;stroke-miterlimit:10;}
	.st90{clip-path:url(#SVGID_58_);fill:#2A3B80;}
	
		.st91{clip-path:url(#SVGID_58_);fill:none;stroke:#000000;stroke-width:7;stroke-linecap:round;stroke-linejoin:round;stroke-miterlimit:10;}
	
		.st92{clip-path:url(#SVGID_58_);fill:none;stroke:#000000;stroke-width:4;stroke-linecap:round;stroke-linejoin:round;stroke-miterlimit:10;}
	
		.st93{clip-path:url(#SVGID_58_);fill:none;stroke:#000000;stroke-width:8;stroke-linecap:round;stroke-linejoin:round;stroke-miterlimit:10;}
	.st94{clip-path:url(#SVGID_58_);}
	.st95{clip-path:url(#SVGID_60_);fill:#FFFFFF;}
	.st96{clip-path:url(#SVGID_60_);fill:#E0E0E0;}
	.st97{clip-path:url(#SVGID_58_);fill:none;}
	.st98{clip-path:url(#SVGID_62_);fill:#B5A3E1;}
	.st99{clip-path:url(#SVGID_62_);fill:#D5211F;}
	
		.st100{clip-path:url(#SVGID_62_);fill:none;stroke:#000000;stroke-width:9;stroke-linecap:round;stroke-linejoin:round;stroke-miterlimit:10;}
	.st101{clip-path:url(#SVGID_62_);fill:#2A3B80;}
	
		.st102{clip-path:url(#SVGID_62_);fill:none;stroke:#000000;stroke-width:7;stroke-linecap:round;stroke-linejoin:round;stroke-miterlimit:10;}
	
		.st103{clip-path:url(#SVGID_62_);fill:none;stroke:#000000;stroke-width:4;stroke-linecap:round;stroke-linejoin:round;stroke-miterlimit:10;}
	
		.st104{clip-path:url(#SVGID_62_);fill:none;stroke:#000000;stroke-width:8;stroke-linecap:round;stroke-linejoin:round;stroke-miterlimit:10;}
	.st105{clip-path:url(#SVGID_62_);}
	.st106{clip-path:url(#SVGID_64_);fill:#FFFFFF;}
	.st107{clip-path:url(#SVGID_64_);fill:#E0E0E0;}
	.st108{clip-path:url(#SVGID_62_);fill:none;}
	.st109{clip-path:url(#SVGID_66_);fill:#B5A3E1;}
	.st110{clip-path:url(#SVGID_66_);}
	.st111{fill:#D5211F;}
	.st112{fill:none;stroke:#000000;stroke-width:9;stroke-linecap:round;stroke-linejoin:round;stroke-miterlimit:10;}
	.st113{fill:none;stroke:#000000;stroke-width:7;stroke-linecap:round;stroke-linejoin:round;stroke-miterlimit:10;}
	.st114{fill:none;stroke:#000000;stroke-width:4;stroke-linecap:round;stroke-linejoin:round;stroke-miterlimit:10;}
	.st115{fill:none;stroke:#000000;stroke-width:8;stroke-linecap:round;stroke-linejoin:round;stroke-miterlimit:10;}
	.st116{clip-path:url(#SVGID_68_);fill:#FFFFFF;}
	.st117{clip-path:url(#SVGID_68_);fill:#E0E0E0;}
	.st118{clip-path:url(#SVGID_70_);fill:#B5A3E1;}
	.st119{clip-path:url(#SVGID_70_);}
	.st120{clip-path:url(#SVGID_72_);fill:#FFFFFF;}
	.st121{clip-path:url(#SVGID_72_);fill:#E0E0E0;}
	.st122{clip-path:url(#SVGID_74_);fill:#B5A3E1;}
	.st123{clip-path:url(#SVGID_74_);}
	.st124{clip-path:url(#SVGID_76_);fill:#FFFFFF;}
	.st125{clip-path:url(#SVGID_76_);fill:#E0E0E0;}
	.st126{clip-path:url(#SVGID_78_);fill:#B5A3E1;}
	.st127{clip-path:url(#SVGID_78_);}
	.st128{clip-path:url(#SVGID_80_);fill:#FFFFFF;}
	.st129{clip-path:url(#SVGID_80_);fill:#E0E0E0;}
</style>
<g id="background" class="st0">
</g>
<g id="Layer_5" class="st0">
</g>
<g id="grid" class="st0">
</g>
<g id="keylines" class="st0">
</g>
<g id="스파이더맨_손">
</g>
<g id="손_굵은선">
	<g>
		<defs>
			<circle id="SVGID_65_" cx="512" cy="512" r="427"/>
		</defs>
		<clipPath id="SVGID_2_">
			<use xlink:href="#SVGID_65_"  style="overflow:visible;"/>
		</clipPath>
		<circle style="clip-path:url(#SVGID_2_);fill:#B5A3E1;" cx="513.32" cy="512.32" r="427"/>
		<g class="st4">
			<path class="st111" d="M249,278.41c3.58-5.34,7.45-10.73,12.92-14.1c5.22-3.22,11.43-4.31,17.48-5.32
				c57.75-9.63,118.38-17.03,173.74,2.01c12.32,4.24,24.51,9.8,37.52,10.28c10.42,0.39,20.65-2.53,30.63-5.54
				c31.03-9.36,35.14-10.53,65.38-22.18c9.55-3.68-0.16,1.46,10.06,2c10.22,0.53,20.92,6.8,23.07,16.8
				c1.74,8.08-2.33,16.2-6.77,23.17c-40.97,64.27-82.5,75.88-154.22,50.09c10.74,6,8.38,21.61,9.64,33.85
				c2.34,22.78,21.27,39.61,34.45,58.34c13.71,19.49,21.7,42.42,34.11,62.76c13.71,22.46,32.5,41.29,51.11,59.9
				c16.29,16.28,32.74,32.69,52.07,45.21c13.96,9.04,29.38,16.04,41.79,27.11c27.42,24.48,35.13,64.08,36.76,100.8
				c0.52,11.7,0.53,23.72-3.53,34.7s-13,20.84-24.52,22.9c-17.67,3.16-32.89-11.93-44.04-25.98c-19.75-24.87-38-50.93-54.63-77.98
				c-6.8-11.06-13.71-22.69-24.61-29.74c-5.47-3.54-11.69-5.74-17.41-8.85c-37.07-20.15-50.77-76.16-92.49-82.45
				c4.89,28.28-23.61,56.94-51.92,52.21c-4.6-0.77-9.48-2.23-13.79-0.44c-4.1,1.7-6.5,5.86-9.14,9.43
				c-19.8,26.79-59.45,25.82-92.56,22.18c2.7,22.94,23.05,38.88,39.21,55.39s29.63,42.47,16.72,61.62
				c-7.98,11.84-23.93,16.25-38.04,14.08c-14.11-2.17-26.75-9.77-38.52-17.84c-16.61-11.39-34.48-32.08-41.18-51.06
				c-19.82-56.14-28.56-78.66-45.75-117.17c-11.65-26.09-31.17-39.29-43.33-65.15c-15.56-33.09-20.53-71.06-14.02-107.04
				c1.26-6.96,3.22-14.33,8.58-18.94c4.89-4.21,11.63-5.3,17.92-6.74c20.08-4.58,51.4-16.81,60.77-36.87
				C223.94,325.27,233.66,301.27,249,278.41z"/>
			<path class="st112" d="M250.05,278.55c3.58-5.34,7.45-10.73,12.92-14.1c5.22-3.22,11.43-4.31,17.48-5.32
				c57.75-9.63,118.38-17.03,173.74,2.01c12.32,4.24,24.51,9.8,37.52,10.28c10.42,0.39,20.65-2.53,30.63-5.54
				c31.03-9.36,13.41-4.43,43.65-16.08c9.55-3.68,18.47-6.48,28.69-5.95s20.92,6.8,23.07,16.8c1.74,8.08-1.84,16.54-6.77,23.17
				c-48.34,64.99-79.4,77.73-151.12,51.94c10.74,6,8.38,21.61,9.64,33.85c2.34,22.78,21.27,39.61,34.45,58.34
				c13.71,19.49,21.7,42.42,34.11,62.76c13.71,22.46,32.5,41.29,51.11,59.9c16.29,16.28,32.74,32.69,52.07,45.21
				c13.96,9.04,29.38,16.04,41.79,27.11c27.42,24.48,35.13,64.08,36.76,100.8c0.52,11.7,0.53,23.72-3.53,34.7s-13,20.84-24.52,22.9
				c-17.67,3.16-32.89-11.93-44.04-25.98c-19.75-24.87-38-50.93-54.63-77.98c-6.8-11.06-13.71-22.69-24.61-29.74
				c-5.47-3.54-11.69-5.74-17.41-8.85c-37.07-20.15-50.77-76.16-92.49-82.45c4.89,28.28-23.61,56.94-51.92,52.21
				c-4.6-0.77-9.48-2.23-13.79-0.44c-4.1,1.7-6.5,5.86-9.14,9.43c-19.8,26.79-59.45,25.82-92.56,22.18
				c2.7,22.94,23.05,38.88,39.21,55.39c16.15,16.51,29.63,42.47,16.72,61.62c-7.98,11.84-23.93,16.25-38.04,14.08
				c-14.11-2.17-26.75-9.77-38.52-17.84c-16.61-11.39-34.48-32.08-41.18-51.06c-19.82-56.14-28.56-78.66-45.75-117.17
				c-11.65-26.09-31.17-39.29-43.33-65.15c-15.56-33.09-20.53-71.06-14.02-107.04c1.26-6.96,3.22-14.33,8.58-18.94
				c4.89-4.21,11.63-5.3,17.92-6.74c20.08-4.58,51.4-16.81,60.77-36.87C224.99,325.4,234.71,301.41,250.05,278.55z"/>
			<path class="st14" d="M188.18,382.68c15.41,1.56,30.91,3.13,45.83,7.29s29.37,11.08,40.33,22.03c3.23,3.23,6.49,6.98,10.99,7.77
				c4.14,0.72,8.22-1.3,12.38-1.92c6.48-0.96,13.38,1.8,17.41,6.96c1.65-3.53,5.55-6.22,5.45-10.12c-0.04-1.62-0.81-3.13-1.49-4.6
				c-2.53-5.45-4.11-11.28-6.29-16.88c-6.96-17.81-20.13-32.88-36.02-43.51c-15.89-10.64-34.41-17-53.29-20
				c-1.44-0.23-2.98-0.42-4.29,0.22c-0.92,0.45-1.59,1.27-2.22,2.08c-3.7,4.74-6.77,9.94-10.4,14.74
				c-6.17,8.18-13.92,15.15-22.7,20.42c-3.59,2.16-13.11,6.21-12.65,11.49c0.28,3.13,3.96,2.71,6.31,2.95
				C181.07,381.96,184.62,382.32,188.18,382.68z"/>
			<path class="st113" d="M188.18,382.68c15.41,1.56,30.91,3.13,45.83,7.29s29.37,11.08,40.33,22.03c3.23,3.23,6.49,6.98,10.99,7.77
				c4.14,0.72,8.22-1.3,12.38-1.92c6.48-0.96,13.38,1.8,17.41,6.96c1.65-3.53,5.55-6.22,5.45-10.12c-0.04-1.62-0.81-3.13-1.49-4.6
				c-2.53-5.45-4.11-11.28-6.29-16.88c-6.96-17.81-20.13-32.88-36.02-43.51c-15.89-10.64-34.41-17-53.29-20
				c-1.44-0.23-2.98-0.42-4.29,0.22c-0.92,0.45-1.59,1.27-2.22,2.08c-3.7,4.74-6.77,9.94-10.4,14.74
				c-6.17,8.18-13.92,15.15-22.7,20.42c-3.59,2.16-13.11,6.21-12.65,11.49c0.28,3.13,3.96,2.71,6.31,2.95
				C181.07,381.96,184.62,382.32,188.18,382.68z"/>
			<path class="st113" d="M377.96,592.41c-3.7-17.67-6.09-34.18-11.07-51.53c-2.82-9.83-5.65-19.67-9.15-29.29
				c-5.56-15.28-12.78-29.93-20.96-43.99c-1-1.72-2.01-3.42-3.02-5.14c-0.98-1.66-1.95-3.33-2.9-5.01
				c-3.86-6.8-7.41-13.78-10.64-20.9c-2.55-5.61-3.99-12.49-9.7-15.81c-4.01-2.33-8.96-2.06-13.57-1.61
				c-10.13,0.99-37.48,1.06-44.54,9.33c-5.83,6.82,0.36,24.82,1.69,32.53c2.39,13.91,5.37,27.71,8.48,41.48
				c6.15,27.28,12.9,54.48,16.89,82.2c1.03,7.17,1.94,14.56,5.36,20.94c2.31,4.32,5.68,7.99,9.33,11.26
				c12.41,11.11,29.11,18.1,45.68,16.39c16.57-1.7,32.41-13.15,36.88-29.2c1.08-3.89,1.5-7.88,1.5-11.91
				c0.78,0.27,1.57,0.5,2.35,0.73c14.04,4.07,29.23,8.12,42.95,3.1c13.78-5.04,23.09-18.54,26.95-32.7
				c3.06-11.21,3.22-22.93,2.81-34.47c-0.35-9.7-2.29-19.3-4.29-28.96c-2.15-10.37-3.5-20.05-5.99-25.52
				c-2.1-4.63-6.15-7.8-10.02-10.86c-12.84-10.14-24.33-21.86-35.41-33.89c-6.91-7.5-13.69-15.14-20.04-23.11
				c-1.54-1.93-3.08-3.91-5.08-5.35c-3.32-2.39-7.57-3.09-11.66-3.15c-12.49-0.21-24.78,5.31-33.45,14.2
				c-3.54,3.63-9.14,9.97-9.79,15.22c-0.06,0.52-0.07,1.06-0.05,1.61c-0.34-0.63-0.7-1.25-1.07-1.86"/>
			<path class="st114" d="M605.68,245.84c-0.36,2.36-0.71,4.73-1.07,7.09c-0.48,3.19-0.96,6.48-0.24,9.63
				c0.55,2.4,1.76,4.59,3.15,6.63c2.02,2.96,4.44,5.66,7.16,7.99"/>
			<path class="st114" d="M596.69,244.37c-1.17-0.75-2.8-0.25-3.76,0.74c-0.96,0.99-1.42,2.36-1.85,3.68
				c-2.12,6.52-4.26,13.34-3.15,20.1c1.52,9.24,8.73,16.35,15.56,22.76"/>
			<path class="st114" d="M575.92,247.39c-2.6,12.65-5.2,25.77-2.38,38.37c0.92,4.11,2.4,8.06,3.94,11.98
				c2.02,5.16,4.2,10.37,7.82,14.57"/>
			<path class="st114" d="M541.52,260.82c-7.44,13.23-13.2,29.19-12.83,44.37c0.3,12.35,4.54,24.29,9.92,35.41"/>
			<path class="st114" d="M454.35,260.48c-3.14-0.73-4.37,3.76-5.03,5.91c-0.99,3.23-1.68,6.55-2.07,9.91
				c-1.49,13.06,2.09,26.74,6.8,38.85c3.09,7.95,7.08,15.56,11.89,22.61"/>
			<path class="st114" d="M482.63,269.83c-1.83,1.47-2.5,3.92-3.07,6.21c-0.97,3.89-1.93,7.79-2.29,11.78
				c-0.63,7.05,0.68,14.12,1.98,21.08c2.14,11.44,4.29,22.9,7.62,34.05"/>
			<path class="st114" d="M335.32,465.7c0,0,13.78-40.44,69.92-27.95c0,0,45.87-7.35,77.18-37.81"/>
			<path class="st114" d="M353.23,500.13c0,0,19.91-55.86,78.59-37.6"/>
			<path class="st114" d="M443.88,481.61c-33.39,27.03-78.98,43.58-80.27,44.99"/>
			<path class="st114" d="M368.68,547.51c0,0,51.35,29.85,82.59-20.56"/>
			<path class="st114" d="M375.06,577.85c0,0,36.53,33.44,76.35-18.39"/>
			<path class="st114" d="M253.63,452.79c0,0,19.93-32.59,67.86-13.48c0,0,10.44-34.15,56.05-32.84"/>
			<path class="st114" d="M260.86,494.8c0,0,24.7-42.5,79.65-20.61"/>
			<path class="st114" d="M270.56,535.21c0,0,19.67-46.01,86.68-24.93"/>
			<path class="st114" d="M273.97,553.62c0,0,54.61,11.34,89.79-28.22"/>
			<path class="st114" d="M279.14,582.5c0,0,45.78,30.64,90.54-30.92"/>
			<path class="st114" d="M295.92,618.39c0,0,62.66,29.48,79.22-40.25"/>
			<path class="st114" d="M679.36,757.84c-1.14,1.77-1.92,3.75-2.11,5.98c-0.08,0.93-0.06,1.9,0.34,2.74
				c2.12,4.49,10.38,4.8,14.34,3.59c1.16-0.35,2.27-0.84,3.37-1.35c1.16-0.53,2.31-1.08,3.37-1.79c3.75-2.51,5.97-6.81,6.97-11.21
				c0.39-1.71,0.61-3.51,0.16-5.2c-1.27-4.79-6.1-4.04-9.94-3.28c-4.23,0.84-8.25,2.69-11.63,5.37
				C682.35,754.18,680.63,755.88,679.36,757.84z"/>
			<path class="st114" d="M651.61,760.09c0,0,13.73-53.86,66.95-53.41"/>
			<path class="st114" d="M629.77,730.1c0,0,44.24-66.7,82.5-57.46"/>
			<path class="st114" d="M604.36,695.74c0,0,10.36-72.17,85.52-65.96"/>
			<path class="st114" d="M587.76,668.85c0,0-4.29-74.22,54.07-70.8"/>
			<path class="st114" d="M531.47,624.13c0,0-3.26-59.42,69.91-61.44"/>
			<path class="st114" d="M505.2,592.29c0,0-2.33-59.74,70.36-55.44"/>
			<path class="st114" d="M481.86,566.33c0,0-5.57-54.57,75.22-49.04"/>
			<path class="st114" d="M459.32,555.85c0,0,4.71-62.49,83.35-58.01"/>
			<path class="st114" d="M339.8,731.57c5.96,8.74-0.31,22.56-8.61,27.31c-6.23,3.57-12.95,2.19-18.27-2.4
				c-4.69-4.04-4.9-10.59-3.98-16.26c0.66-4.04,2.07-7.77,5.29-10.46c3.6-3.01,8.53-4.08,13.13-3.78
				C331.91,726.27,337.05,727.54,339.8,731.57z"/>
			<path class="st114" d="M277.56,757.63c0,0-3.64-77.29,61.48-52.31"/>
			<path class="st114" d="M245.4,729.27c0,0-14.23-82.39,63.56-55.73"/>
			<path class="st114" d="M226.88,696.24c0,0,1.09-86.71,69.16-40.73"/>
			<path class="st115" d="M276.05,567.93c-1.22,0.47-9.11,31.91-5.6,38.62c0,0,8.64,26.08,21.54,35.12"/>
			<path class="st115" d="M299.45,660.87c0.2-0.64-9.62-13.83-13.44-14.55c0,0-13.58-5.12-22.12-5.46"/>
			<path class="st114" d="M272.12,610.18c0,0-41.22-28.47-60.95,41.41"/>
			<path class="st114" d="M446.33,490.32c7.85,2.12,16.09,2.74,24.17,1.84c1.75-0.19,3.49-0.46,5.22-0.76
				c18.06-3.13,35.44-10.11,50.64-20.34"/>
			<path class="st114" d="M161.68,384.51c0,0,69.46,73.97,92.84,84.49"/>
			<path class="st114" d="M124.04,427.69c0,0,8.76,83.69,99.69,159.45"/>
			<path class="st114" d="M189.1,412.69c0,0-16.81,64.51-45.38,74.72"/>
			<path class="st114" d="M180.9,544.45c0,0,62.71-30.35,75.37-74.43"/>
			<path class="st114" d="M192.21,415.78c0,0,33.93-6.89,41.91-26.33"/>
			<path class="st114" d="M202.9,626.26c0,0,32.86-88.85,67.54-33.33"/>
			<path class="st114" d="M213.44,578.22c0,0,45.98-29.67,51.31-58.83"/>
			<path class="st114" d="M433.15,255.18c0,0-2.29,52.85,27.46,82.38"/>
			<path class="st114" d="M459.87,335.75c0,0-58.43-63.41-141.01-61.46c0,0-45.23-9.39-78.19,19.52"/>
			<path class="st114" d="M354.41,250.44c0,0-21.78,8.56-35.56,23.85"/>
			<path class="st114" d="M317.21,274c0,0-0.68,34.2-23.01,49.43"/>
			<path class="st114" d="M230.36,313.57c0,0,32.09-17.38,101.43,32.69c0,0,28.2,17.96,40.67,54.86"/>
			<path class="st114" d="M292.68,322.71c0,0-1.11,20.68-17.84,25.96"/>
			<path class="st114" d="M417.26,302.41c0,0,6.02,63.69-56.37,74.71"/>
			<g>
				<defs>
					<path id="SVGID_67_" d="M931.53,655.83c-233.2-124.12-470.85-254.57-723.2-315.66c69.16,4.33,138.18,12.73,206.66,25.16
						c50.25,9.12,100.18,20.39,150.09,31.66c39.16,8.84,78.33,17.69,117.49,26.53c91.06,20.56,182.79,41.35,268.91,80.51
						c-3.94,19.13-1.75,41.46-5.69,60.59C939.87,593.38,929.82,626.24,931.53,655.83z"/>
				</defs>
				<clipPath id="SVGID_4_">
					<use xlink:href="#SVGID_67_"  style="overflow:visible;"/>
				</clipPath>
				<path style="clip-path:url(#SVGID_4_);fill:#FFFFFF;" d="M945.56,565.77c3.94-19.13,1.75-41.46,5.69-60.59
					c-86.12-39.16-177.85-59.94-268.91-80.51c-39.16-8.84-78.33-17.69-117.49-26.53c-49.92-11.27-99.85-22.55-150.09-31.66
					c-68.48-12.43-137.51-20.83-206.66-25.16c252.35,61.1,489.99,191.54,723.2,315.66C929.59,627.39,939.63,594.53,945.56,565.77z
					 M558.84,454.4c-10.32-4.14-17.94-9.8-17.94-9.8s9.1,1.05,19.42,5.2c10.32,4.14,17.94,9.8,17.94,9.8S569.15,458.54,558.84,454.4
					z M500.8,397.04c0,0,42.98,9.38,95.54,23.25c52.55,13.87,94.77,26.98,94.77,26.98s-42.98-9.38-95.54-23.25
					C543.02,410.15,500.8,397.04,500.8,397.04z M743.24,506.57c-39.01-15.66-69.89-30.65-69.89-30.65s32.36,10.39,71.37,26.05
					c39.01,15.66,69.89,30.65,69.89,30.65S782.24,522.22,743.24,506.57z M862.74,598.9c-9.76-5.57-16.65-12.26-16.65-12.26
					s8.92,2.35,18.68,7.92c9.76,5.57,16.65,12.26,16.65,12.26S872.5,604.47,862.74,598.9z"/>
				<path style="clip-path:url(#SVGID_4_);fill:#E0E0E0;" d="M962.04,573.18c-245.95-81.92-473.7-195.03-754.21-232.26
					c68.3,15.63,135.03,33.36,203.93,50.87c50.55,12.85,101.13,26.17,151.69,39.49c39.67,10.45,79.34,20.9,119.01,31.35
					c92.24,24.3,185.17,48.79,275.47,76.71c-0.88,3.96,4.73,10.02,3.86,13.98C960.48,559.29,955.77,565.41,962.04,573.18z"/>
				<path style="clip-path:url(#SVGID_4_);fill:#E0E0E0;" d="M951.01,643.99c2.49-9.39,13.03-16.94,15.52-26.33
					c-87.94-37.36-179.79-88.04-278.9-125.82c-38.65-14.73-78.38-33.59-117.72-45.82c-50.14-15.59-100.29-31.19-150.59-45.7
					C350.75,380.53,284.64,359.6,216,343.99c262.3,89.74,460.39,238.51,727.6,345.66C939.75,673.61,947.26,658.11,951.01,643.99z
					 M558.84,454.4c-10.32-4.14-17.94-9.8-17.94-9.8s9.1,1.05,19.42,5.2s17.94,9.8,17.94,9.8S569.15,458.54,558.84,454.4z
					 M862.74,598.9c-9.76-5.57-16.65-12.26-16.65-12.26s8.92,2.35,18.68,7.92s16.65,12.26,16.65,12.26S872.5,604.47,862.74,598.9z"
					/>
			</g>
		</g>
	</g>
</g>
</svg>
